<mxfile host="Electron" modified="2024-04-15T20:13:44.052Z" agent="Mozilla/5.0 (Windows NT 10.0; Win64; x64) AppleWebKit/537.36 (KHTML, like Gecko) draw.io/24.2.5 Chrome/120.0.6099.109 Electron/28.1.0 Safari/537.36" etag="BJ7yA_ntgT5pKkv_ABtP" version="24.2.5" type="device">
  <diagram name="Page-1" id="GavkooOX6epFIxhdZz8Q">
    <mxGraphModel dx="830" dy="498" grid="1" gridSize="10" guides="1" tooltips="1" connect="1" arrows="1" fold="1" page="1" pageScale="1" pageWidth="800" pageHeight="1000" math="0" shadow="0">
      <root>
        <mxCell id="0" />
        <mxCell id="1" parent="0" />
        <mxCell id="jgQKw97qstqUn-P2dx_w-140" value="Entity" style="whiteSpace=wrap;html=1;" parent="1" vertex="1">
          <mxGeometry x="545" y="755" width="110" height="59.5" as="geometry" />
        </mxCell>
        <mxCell id="jgQKw97qstqUn-P2dx_w-1" value="" style="whiteSpace=wrap;html=1;aspect=fixed;" parent="1" vertex="1">
          <mxGeometry x="200.13" y="80" width="40" height="40" as="geometry" />
        </mxCell>
        <mxCell id="jgQKw97qstqUn-P2dx_w-2" value="&lt;div&gt;Tile&lt;/div&gt;(1, 0)" style="whiteSpace=wrap;html=1;aspect=fixed;" parent="1" vertex="1">
          <mxGeometry x="240.13" y="80" width="40" height="40" as="geometry" />
        </mxCell>
        <mxCell id="jgQKw97qstqUn-P2dx_w-3" value="&lt;div&gt;Tile&lt;/div&gt;(2, 0)" style="whiteSpace=wrap;html=1;aspect=fixed;" parent="1" vertex="1">
          <mxGeometry x="280.13" y="80" width="40" height="40" as="geometry" />
        </mxCell>
        <mxCell id="jgQKw97qstqUn-P2dx_w-5" value="" style="whiteSpace=wrap;html=1;aspect=fixed;" parent="1" vertex="1">
          <mxGeometry x="320.13" y="80" width="40" height="40" as="geometry" />
        </mxCell>
        <mxCell id="jgQKw97qstqUn-P2dx_w-6" value="" style="whiteSpace=wrap;html=1;aspect=fixed;" parent="1" vertex="1">
          <mxGeometry x="360.13" y="80" width="40" height="40" as="geometry" />
        </mxCell>
        <mxCell id="jgQKw97qstqUn-P2dx_w-7" value="" style="whiteSpace=wrap;html=1;aspect=fixed;" parent="1" vertex="1">
          <mxGeometry x="400.13" y="80" width="40" height="40" as="geometry" />
        </mxCell>
        <mxCell id="jgQKw97qstqUn-P2dx_w-8" value="" style="whiteSpace=wrap;html=1;aspect=fixed;" parent="1" vertex="1">
          <mxGeometry x="440.13" y="80" width="40" height="40" as="geometry" />
        </mxCell>
        <mxCell id="jgQKw97qstqUn-P2dx_w-9" value="" style="whiteSpace=wrap;html=1;aspect=fixed;" parent="1" vertex="1">
          <mxGeometry x="480.13" y="80" width="40" height="40" as="geometry" />
        </mxCell>
        <mxCell id="jgQKw97qstqUn-P2dx_w-10" value="" style="whiteSpace=wrap;html=1;aspect=fixed;" parent="1" vertex="1">
          <mxGeometry x="520.13" y="80" width="40" height="40" as="geometry" />
        </mxCell>
        <mxCell id="jgQKw97qstqUn-P2dx_w-11" value="Tile&lt;div&gt;(9, 0)&lt;/div&gt;" style="whiteSpace=wrap;html=1;aspect=fixed;" parent="1" vertex="1">
          <mxGeometry x="560.13" y="80" width="40" height="40" as="geometry" />
        </mxCell>
        <mxCell id="jgQKw97qstqUn-P2dx_w-12" value="&lt;div&gt;Tile&lt;/div&gt;(0,1)" style="whiteSpace=wrap;html=1;aspect=fixed;" parent="1" vertex="1">
          <mxGeometry x="200.13" y="120" width="40" height="40" as="geometry" />
        </mxCell>
        <mxCell id="jgQKw97qstqUn-P2dx_w-13" value="&lt;div&gt;Tile&lt;/div&gt;(1, 1)" style="whiteSpace=wrap;html=1;aspect=fixed;" parent="1" vertex="1">
          <mxGeometry x="240.13" y="120" width="40" height="40" as="geometry" />
        </mxCell>
        <mxCell id="jgQKw97qstqUn-P2dx_w-14" value="&lt;div&gt;Tile&lt;/div&gt;(2, 1)" style="whiteSpace=wrap;html=1;aspect=fixed;" parent="1" vertex="1">
          <mxGeometry x="280.13" y="120" width="40" height="40" as="geometry" />
        </mxCell>
        <mxCell id="jgQKw97qstqUn-P2dx_w-15" value="" style="whiteSpace=wrap;html=1;aspect=fixed;" parent="1" vertex="1">
          <mxGeometry x="320.13" y="120" width="40" height="40" as="geometry" />
        </mxCell>
        <mxCell id="jgQKw97qstqUn-P2dx_w-16" value="" style="whiteSpace=wrap;html=1;aspect=fixed;" parent="1" vertex="1">
          <mxGeometry x="360.13" y="120" width="40" height="40" as="geometry" />
        </mxCell>
        <mxCell id="jgQKw97qstqUn-P2dx_w-17" value="" style="whiteSpace=wrap;html=1;aspect=fixed;" parent="1" vertex="1">
          <mxGeometry x="400.13" y="120" width="40" height="40" as="geometry" />
        </mxCell>
        <mxCell id="jgQKw97qstqUn-P2dx_w-18" value="" style="whiteSpace=wrap;html=1;aspect=fixed;" parent="1" vertex="1">
          <mxGeometry x="440.13" y="120" width="40" height="40" as="geometry" />
        </mxCell>
        <mxCell id="jgQKw97qstqUn-P2dx_w-19" value="" style="whiteSpace=wrap;html=1;aspect=fixed;" parent="1" vertex="1">
          <mxGeometry x="480.13" y="120" width="40" height="40" as="geometry" />
        </mxCell>
        <mxCell id="jgQKw97qstqUn-P2dx_w-20" value="" style="whiteSpace=wrap;html=1;aspect=fixed;" parent="1" vertex="1">
          <mxGeometry x="520.13" y="120" width="40" height="40" as="geometry" />
        </mxCell>
        <mxCell id="jgQKw97qstqUn-P2dx_w-21" value="" style="whiteSpace=wrap;html=1;aspect=fixed;" parent="1" vertex="1">
          <mxGeometry x="560.13" y="120" width="40" height="40" as="geometry" />
        </mxCell>
        <mxCell id="jgQKw97qstqUn-P2dx_w-22" value="&lt;div&gt;Tile&lt;/div&gt;(0, 2&lt;span style=&quot;background-color: initial;&quot;&gt;)&lt;/span&gt;" style="whiteSpace=wrap;html=1;aspect=fixed;" parent="1" vertex="1">
          <mxGeometry x="200.13" y="160" width="40" height="40" as="geometry" />
        </mxCell>
        <mxCell id="jgQKw97qstqUn-P2dx_w-23" value="&lt;div&gt;Tile&lt;/div&gt;(1, 2)" style="whiteSpace=wrap;html=1;aspect=fixed;" parent="1" vertex="1">
          <mxGeometry x="240.13" y="160" width="40" height="40" as="geometry" />
        </mxCell>
        <mxCell id="jgQKw97qstqUn-P2dx_w-24" value="&lt;div&gt;Tile&lt;/div&gt;(2, 2)" style="whiteSpace=wrap;html=1;aspect=fixed;" parent="1" vertex="1">
          <mxGeometry x="280.13" y="160" width="40" height="40" as="geometry" />
        </mxCell>
        <mxCell id="jgQKw97qstqUn-P2dx_w-25" value="" style="whiteSpace=wrap;html=1;aspect=fixed;" parent="1" vertex="1">
          <mxGeometry x="320.13" y="160" width="40" height="40" as="geometry" />
        </mxCell>
        <mxCell id="jgQKw97qstqUn-P2dx_w-26" value="" style="whiteSpace=wrap;html=1;aspect=fixed;" parent="1" vertex="1">
          <mxGeometry x="360.13" y="160" width="40" height="40" as="geometry" />
        </mxCell>
        <mxCell id="jgQKw97qstqUn-P2dx_w-27" value="" style="whiteSpace=wrap;html=1;aspect=fixed;" parent="1" vertex="1">
          <mxGeometry x="400.13" y="160" width="40" height="40" as="geometry" />
        </mxCell>
        <mxCell id="jgQKw97qstqUn-P2dx_w-28" value="" style="whiteSpace=wrap;html=1;aspect=fixed;" parent="1" vertex="1">
          <mxGeometry x="440.13" y="160" width="40" height="40" as="geometry" />
        </mxCell>
        <mxCell id="jgQKw97qstqUn-P2dx_w-29" value="" style="whiteSpace=wrap;html=1;aspect=fixed;" parent="1" vertex="1">
          <mxGeometry x="480.13" y="160" width="40" height="40" as="geometry" />
        </mxCell>
        <mxCell id="jgQKw97qstqUn-P2dx_w-30" value="" style="whiteSpace=wrap;html=1;aspect=fixed;" parent="1" vertex="1">
          <mxGeometry x="520.13" y="160" width="40" height="40" as="geometry" />
        </mxCell>
        <mxCell id="jgQKw97qstqUn-P2dx_w-31" value="" style="whiteSpace=wrap;html=1;aspect=fixed;" parent="1" vertex="1">
          <mxGeometry x="560.13" y="160" width="40" height="40" as="geometry" />
        </mxCell>
        <mxCell id="jgQKw97qstqUn-P2dx_w-32" value="" style="whiteSpace=wrap;html=1;aspect=fixed;" parent="1" vertex="1">
          <mxGeometry x="200.13" y="200" width="40" height="40" as="geometry" />
        </mxCell>
        <mxCell id="jgQKw97qstqUn-P2dx_w-33" value="" style="whiteSpace=wrap;html=1;aspect=fixed;" parent="1" vertex="1">
          <mxGeometry x="240.13" y="200" width="40" height="40" as="geometry" />
        </mxCell>
        <mxCell id="jgQKw97qstqUn-P2dx_w-34" value="" style="whiteSpace=wrap;html=1;aspect=fixed;" parent="1" vertex="1">
          <mxGeometry x="280.13" y="200" width="40" height="40" as="geometry" />
        </mxCell>
        <mxCell id="jgQKw97qstqUn-P2dx_w-35" value="" style="whiteSpace=wrap;html=1;aspect=fixed;" parent="1" vertex="1">
          <mxGeometry x="320.13" y="200" width="40" height="40" as="geometry" />
        </mxCell>
        <mxCell id="jgQKw97qstqUn-P2dx_w-36" value="" style="whiteSpace=wrap;html=1;aspect=fixed;" parent="1" vertex="1">
          <mxGeometry x="360.13" y="200" width="40" height="40" as="geometry" />
        </mxCell>
        <mxCell id="jgQKw97qstqUn-P2dx_w-37" value="" style="whiteSpace=wrap;html=1;aspect=fixed;" parent="1" vertex="1">
          <mxGeometry x="400.13" y="200" width="40" height="40" as="geometry" />
        </mxCell>
        <mxCell id="jgQKw97qstqUn-P2dx_w-38" value="" style="whiteSpace=wrap;html=1;aspect=fixed;" parent="1" vertex="1">
          <mxGeometry x="440.13" y="200" width="40" height="40" as="geometry" />
        </mxCell>
        <mxCell id="jgQKw97qstqUn-P2dx_w-39" value="" style="whiteSpace=wrap;html=1;aspect=fixed;" parent="1" vertex="1">
          <mxGeometry x="480.13" y="200" width="40" height="40" as="geometry" />
        </mxCell>
        <mxCell id="jgQKw97qstqUn-P2dx_w-40" value="" style="whiteSpace=wrap;html=1;aspect=fixed;" parent="1" vertex="1">
          <mxGeometry x="520.13" y="200" width="40" height="40" as="geometry" />
        </mxCell>
        <mxCell id="jgQKw97qstqUn-P2dx_w-41" value="" style="whiteSpace=wrap;html=1;aspect=fixed;" parent="1" vertex="1">
          <mxGeometry x="560.13" y="200" width="40" height="40" as="geometry" />
        </mxCell>
        <mxCell id="jgQKw97qstqUn-P2dx_w-42" value="" style="whiteSpace=wrap;html=1;aspect=fixed;" parent="1" vertex="1">
          <mxGeometry x="200.13" y="240" width="40" height="40" as="geometry" />
        </mxCell>
        <mxCell id="jgQKw97qstqUn-P2dx_w-43" value="" style="whiteSpace=wrap;html=1;aspect=fixed;" parent="1" vertex="1">
          <mxGeometry x="240.13" y="240" width="40" height="40" as="geometry" />
        </mxCell>
        <mxCell id="jgQKw97qstqUn-P2dx_w-44" value="" style="whiteSpace=wrap;html=1;aspect=fixed;" parent="1" vertex="1">
          <mxGeometry x="280.13" y="240" width="40" height="40" as="geometry" />
        </mxCell>
        <mxCell id="jgQKw97qstqUn-P2dx_w-45" value="" style="whiteSpace=wrap;html=1;aspect=fixed;" parent="1" vertex="1">
          <mxGeometry x="320.13" y="240" width="40" height="40" as="geometry" />
        </mxCell>
        <mxCell id="jgQKw97qstqUn-P2dx_w-46" value="" style="whiteSpace=wrap;html=1;aspect=fixed;" parent="1" vertex="1">
          <mxGeometry x="360.13" y="240" width="40" height="40" as="geometry" />
        </mxCell>
        <mxCell id="jgQKw97qstqUn-P2dx_w-47" value="" style="whiteSpace=wrap;html=1;aspect=fixed;" parent="1" vertex="1">
          <mxGeometry x="400.13" y="240" width="40" height="40" as="geometry" />
        </mxCell>
        <mxCell id="jgQKw97qstqUn-P2dx_w-48" value="" style="whiteSpace=wrap;html=1;aspect=fixed;" parent="1" vertex="1">
          <mxGeometry x="440.13" y="240" width="40" height="40" as="geometry" />
        </mxCell>
        <mxCell id="jgQKw97qstqUn-P2dx_w-49" value="" style="whiteSpace=wrap;html=1;aspect=fixed;" parent="1" vertex="1">
          <mxGeometry x="480.13" y="240" width="40" height="40" as="geometry" />
        </mxCell>
        <mxCell id="jgQKw97qstqUn-P2dx_w-50" value="" style="whiteSpace=wrap;html=1;aspect=fixed;" parent="1" vertex="1">
          <mxGeometry x="520.13" y="240" width="40" height="40" as="geometry" />
        </mxCell>
        <mxCell id="jgQKw97qstqUn-P2dx_w-51" value="" style="whiteSpace=wrap;html=1;aspect=fixed;" parent="1" vertex="1">
          <mxGeometry x="560.13" y="240" width="40" height="40" as="geometry" />
        </mxCell>
        <mxCell id="jgQKw97qstqUn-P2dx_w-52" value="" style="whiteSpace=wrap;html=1;aspect=fixed;" parent="1" vertex="1">
          <mxGeometry x="200.13" y="280" width="40" height="40" as="geometry" />
        </mxCell>
        <mxCell id="jgQKw97qstqUn-P2dx_w-53" value="" style="whiteSpace=wrap;html=1;aspect=fixed;" parent="1" vertex="1">
          <mxGeometry x="240.13" y="280" width="40" height="40" as="geometry" />
        </mxCell>
        <mxCell id="jgQKw97qstqUn-P2dx_w-54" value="" style="whiteSpace=wrap;html=1;aspect=fixed;" parent="1" vertex="1">
          <mxGeometry x="280.13" y="280" width="40" height="40" as="geometry" />
        </mxCell>
        <mxCell id="jgQKw97qstqUn-P2dx_w-55" value="" style="whiteSpace=wrap;html=1;aspect=fixed;" parent="1" vertex="1">
          <mxGeometry x="320.13" y="280" width="40" height="40" as="geometry" />
        </mxCell>
        <mxCell id="jgQKw97qstqUn-P2dx_w-56" value="" style="whiteSpace=wrap;html=1;aspect=fixed;" parent="1" vertex="1">
          <mxGeometry x="360.13" y="280" width="40" height="40" as="geometry" />
        </mxCell>
        <mxCell id="jgQKw97qstqUn-P2dx_w-57" value="" style="whiteSpace=wrap;html=1;aspect=fixed;" parent="1" vertex="1">
          <mxGeometry x="400.13" y="280" width="40" height="40" as="geometry" />
        </mxCell>
        <mxCell id="jgQKw97qstqUn-P2dx_w-58" value="" style="whiteSpace=wrap;html=1;aspect=fixed;" parent="1" vertex="1">
          <mxGeometry x="440.13" y="280" width="40" height="40" as="geometry" />
        </mxCell>
        <mxCell id="jgQKw97qstqUn-P2dx_w-59" value="" style="whiteSpace=wrap;html=1;aspect=fixed;" parent="1" vertex="1">
          <mxGeometry x="480.13" y="280" width="40" height="40" as="geometry" />
        </mxCell>
        <mxCell id="jgQKw97qstqUn-P2dx_w-60" value="" style="whiteSpace=wrap;html=1;aspect=fixed;" parent="1" vertex="1">
          <mxGeometry x="520.13" y="280" width="40" height="40" as="geometry" />
        </mxCell>
        <mxCell id="jgQKw97qstqUn-P2dx_w-61" value="" style="whiteSpace=wrap;html=1;aspect=fixed;" parent="1" vertex="1">
          <mxGeometry x="560.13" y="280" width="40" height="40" as="geometry" />
        </mxCell>
        <mxCell id="jgQKw97qstqUn-P2dx_w-62" value="" style="whiteSpace=wrap;html=1;aspect=fixed;" parent="1" vertex="1">
          <mxGeometry x="200.13" y="320" width="40" height="40" as="geometry" />
        </mxCell>
        <mxCell id="jgQKw97qstqUn-P2dx_w-63" value="" style="whiteSpace=wrap;html=1;aspect=fixed;" parent="1" vertex="1">
          <mxGeometry x="240.13" y="320" width="40" height="40" as="geometry" />
        </mxCell>
        <mxCell id="jgQKw97qstqUn-P2dx_w-64" value="" style="whiteSpace=wrap;html=1;aspect=fixed;" parent="1" vertex="1">
          <mxGeometry x="280.13" y="320" width="40" height="40" as="geometry" />
        </mxCell>
        <mxCell id="jgQKw97qstqUn-P2dx_w-65" value="" style="whiteSpace=wrap;html=1;aspect=fixed;" parent="1" vertex="1">
          <mxGeometry x="320.13" y="320" width="40" height="40" as="geometry" />
        </mxCell>
        <mxCell id="jgQKw97qstqUn-P2dx_w-66" value="" style="whiteSpace=wrap;html=1;aspect=fixed;" parent="1" vertex="1">
          <mxGeometry x="360.13" y="320" width="40" height="40" as="geometry" />
        </mxCell>
        <mxCell id="jgQKw97qstqUn-P2dx_w-67" value="" style="whiteSpace=wrap;html=1;aspect=fixed;" parent="1" vertex="1">
          <mxGeometry x="400.13" y="320" width="40" height="40" as="geometry" />
        </mxCell>
        <mxCell id="jgQKw97qstqUn-P2dx_w-68" value="" style="whiteSpace=wrap;html=1;aspect=fixed;" parent="1" vertex="1">
          <mxGeometry x="440.13" y="320" width="40" height="40" as="geometry" />
        </mxCell>
        <mxCell id="jgQKw97qstqUn-P2dx_w-69" value="" style="whiteSpace=wrap;html=1;aspect=fixed;" parent="1" vertex="1">
          <mxGeometry x="480.13" y="320" width="40" height="40" as="geometry" />
        </mxCell>
        <mxCell id="jgQKw97qstqUn-P2dx_w-70" value="" style="whiteSpace=wrap;html=1;aspect=fixed;" parent="1" vertex="1">
          <mxGeometry x="520.13" y="320" width="40" height="40" as="geometry" />
        </mxCell>
        <mxCell id="jgQKw97qstqUn-P2dx_w-71" value="" style="whiteSpace=wrap;html=1;aspect=fixed;" parent="1" vertex="1">
          <mxGeometry x="560.13" y="320" width="40" height="40" as="geometry" />
        </mxCell>
        <mxCell id="jgQKw97qstqUn-P2dx_w-72" value="" style="whiteSpace=wrap;html=1;aspect=fixed;" parent="1" vertex="1">
          <mxGeometry x="200.13" y="360" width="40" height="40" as="geometry" />
        </mxCell>
        <mxCell id="jgQKw97qstqUn-P2dx_w-73" value="" style="whiteSpace=wrap;html=1;aspect=fixed;" parent="1" vertex="1">
          <mxGeometry x="240.13" y="360" width="40" height="40" as="geometry" />
        </mxCell>
        <mxCell id="jgQKw97qstqUn-P2dx_w-74" value="" style="whiteSpace=wrap;html=1;aspect=fixed;" parent="1" vertex="1">
          <mxGeometry x="280.13" y="360" width="40" height="40" as="geometry" />
        </mxCell>
        <mxCell id="jgQKw97qstqUn-P2dx_w-75" value="" style="whiteSpace=wrap;html=1;aspect=fixed;" parent="1" vertex="1">
          <mxGeometry x="320.13" y="360" width="40" height="40" as="geometry" />
        </mxCell>
        <mxCell id="jgQKw97qstqUn-P2dx_w-76" value="" style="whiteSpace=wrap;html=1;aspect=fixed;" parent="1" vertex="1">
          <mxGeometry x="360.13" y="360" width="40" height="40" as="geometry" />
        </mxCell>
        <mxCell id="jgQKw97qstqUn-P2dx_w-77" value="" style="whiteSpace=wrap;html=1;aspect=fixed;" parent="1" vertex="1">
          <mxGeometry x="400.13" y="360" width="40" height="40" as="geometry" />
        </mxCell>
        <mxCell id="jgQKw97qstqUn-P2dx_w-78" value="" style="whiteSpace=wrap;html=1;aspect=fixed;" parent="1" vertex="1">
          <mxGeometry x="440.13" y="360" width="40" height="40" as="geometry" />
        </mxCell>
        <mxCell id="jgQKw97qstqUn-P2dx_w-79" value="" style="whiteSpace=wrap;html=1;aspect=fixed;" parent="1" vertex="1">
          <mxGeometry x="480.13" y="360" width="40" height="40" as="geometry" />
        </mxCell>
        <mxCell id="jgQKw97qstqUn-P2dx_w-80" value="" style="whiteSpace=wrap;html=1;aspect=fixed;" parent="1" vertex="1">
          <mxGeometry x="520.13" y="360" width="40" height="40" as="geometry" />
        </mxCell>
        <mxCell id="jgQKw97qstqUn-P2dx_w-81" value="" style="whiteSpace=wrap;html=1;aspect=fixed;" parent="1" vertex="1">
          <mxGeometry x="560.13" y="360" width="40" height="40" as="geometry" />
        </mxCell>
        <mxCell id="jgQKw97qstqUn-P2dx_w-82" value="" style="whiteSpace=wrap;html=1;aspect=fixed;" parent="1" vertex="1">
          <mxGeometry x="200.13" y="400" width="40" height="40" as="geometry" />
        </mxCell>
        <mxCell id="jgQKw97qstqUn-P2dx_w-83" value="" style="whiteSpace=wrap;html=1;aspect=fixed;" parent="1" vertex="1">
          <mxGeometry x="240.13" y="400" width="40" height="40" as="geometry" />
        </mxCell>
        <mxCell id="jgQKw97qstqUn-P2dx_w-84" value="" style="whiteSpace=wrap;html=1;aspect=fixed;" parent="1" vertex="1">
          <mxGeometry x="280.13" y="400" width="40" height="40" as="geometry" />
        </mxCell>
        <mxCell id="jgQKw97qstqUn-P2dx_w-85" value="" style="whiteSpace=wrap;html=1;aspect=fixed;" parent="1" vertex="1">
          <mxGeometry x="320.13" y="400" width="40" height="40" as="geometry" />
        </mxCell>
        <mxCell id="jgQKw97qstqUn-P2dx_w-86" value="" style="whiteSpace=wrap;html=1;aspect=fixed;" parent="1" vertex="1">
          <mxGeometry x="360.13" y="400" width="40" height="40" as="geometry" />
        </mxCell>
        <mxCell id="jgQKw97qstqUn-P2dx_w-87" value="" style="whiteSpace=wrap;html=1;aspect=fixed;" parent="1" vertex="1">
          <mxGeometry x="400.13" y="400" width="40" height="40" as="geometry" />
        </mxCell>
        <mxCell id="jgQKw97qstqUn-P2dx_w-88" value="" style="whiteSpace=wrap;html=1;aspect=fixed;" parent="1" vertex="1">
          <mxGeometry x="440.13" y="400" width="40" height="40" as="geometry" />
        </mxCell>
        <mxCell id="jgQKw97qstqUn-P2dx_w-89" value="" style="whiteSpace=wrap;html=1;aspect=fixed;" parent="1" vertex="1">
          <mxGeometry x="480.13" y="400" width="40" height="40" as="geometry" />
        </mxCell>
        <mxCell id="jgQKw97qstqUn-P2dx_w-90" value="" style="whiteSpace=wrap;html=1;aspect=fixed;" parent="1" vertex="1">
          <mxGeometry x="520.13" y="400" width="40" height="40" as="geometry" />
        </mxCell>
        <mxCell id="jgQKw97qstqUn-P2dx_w-91" value="" style="whiteSpace=wrap;html=1;aspect=fixed;" parent="1" vertex="1">
          <mxGeometry x="560.13" y="400" width="40" height="40" as="geometry" />
        </mxCell>
        <mxCell id="jgQKw97qstqUn-P2dx_w-92" value="Tile&lt;div&gt;(0, 9)&lt;/div&gt;" style="whiteSpace=wrap;html=1;aspect=fixed;" parent="1" vertex="1">
          <mxGeometry x="200.13" y="440" width="40" height="40" as="geometry" />
        </mxCell>
        <mxCell id="jgQKw97qstqUn-P2dx_w-93" value="" style="whiteSpace=wrap;html=1;aspect=fixed;" parent="1" vertex="1">
          <mxGeometry x="240.13" y="440" width="40" height="40" as="geometry" />
        </mxCell>
        <mxCell id="jgQKw97qstqUn-P2dx_w-94" value="" style="whiteSpace=wrap;html=1;aspect=fixed;" parent="1" vertex="1">
          <mxGeometry x="280.13" y="440" width="40" height="40" as="geometry" />
        </mxCell>
        <mxCell id="jgQKw97qstqUn-P2dx_w-95" value="" style="whiteSpace=wrap;html=1;aspect=fixed;" parent="1" vertex="1">
          <mxGeometry x="320.13" y="440" width="40" height="40" as="geometry" />
        </mxCell>
        <mxCell id="jgQKw97qstqUn-P2dx_w-96" value="" style="whiteSpace=wrap;html=1;aspect=fixed;" parent="1" vertex="1">
          <mxGeometry x="360.13" y="440" width="40" height="40" as="geometry" />
        </mxCell>
        <mxCell id="jgQKw97qstqUn-P2dx_w-97" value="" style="whiteSpace=wrap;html=1;aspect=fixed;" parent="1" vertex="1">
          <mxGeometry x="400.13" y="440" width="40" height="40" as="geometry" />
        </mxCell>
        <mxCell id="jgQKw97qstqUn-P2dx_w-98" value="" style="whiteSpace=wrap;html=1;aspect=fixed;" parent="1" vertex="1">
          <mxGeometry x="440.13" y="440" width="40" height="40" as="geometry" />
        </mxCell>
        <mxCell id="jgQKw97qstqUn-P2dx_w-99" value="" style="whiteSpace=wrap;html=1;aspect=fixed;" parent="1" vertex="1">
          <mxGeometry x="480.13" y="440" width="40" height="40" as="geometry" />
        </mxCell>
        <mxCell id="jgQKw97qstqUn-P2dx_w-100" value="" style="whiteSpace=wrap;html=1;aspect=fixed;" parent="1" vertex="1">
          <mxGeometry x="520.13" y="440" width="40" height="40" as="geometry" />
        </mxCell>
        <mxCell id="jgQKw97qstqUn-P2dx_w-101" value="Tile&lt;div&gt;(9, 9)&lt;/div&gt;" style="whiteSpace=wrap;html=1;aspect=fixed;" parent="1" vertex="1">
          <mxGeometry x="560.13" y="440" width="40" height="40" as="geometry" />
        </mxCell>
        <mxCell id="jgQKw97qstqUn-P2dx_w-102" value="" style="shape=cross;whiteSpace=wrap;html=1;rotation=45;size=0.16279371554005403;" parent="1" vertex="1">
          <mxGeometry x="195.13" y="75" width="10" height="10" as="geometry" />
        </mxCell>
        <mxCell id="jgQKw97qstqUn-P2dx_w-103" value="(0.0, 0.0)" style="text;html=1;align=center;verticalAlign=middle;whiteSpace=wrap;rounded=0;" parent="1" vertex="1">
          <mxGeometry x="170.13" y="50" width="60" height="30" as="geometry" />
        </mxCell>
        <mxCell id="jgQKw97qstqUn-P2dx_w-104" value="" style="shape=cross;whiteSpace=wrap;html=1;rotation=45;size=0.16279371554005403;" parent="1" vertex="1">
          <mxGeometry x="595.13" y="75" width="10" height="10" as="geometry" />
        </mxCell>
        <mxCell id="jgQKw97qstqUn-P2dx_w-106" value="(1&lt;span style=&quot;background-color: initial;&quot;&gt;0.0, 0.0)&lt;/span&gt;" style="text;html=1;align=center;verticalAlign=middle;whiteSpace=wrap;rounded=0;" parent="1" vertex="1">
          <mxGeometry x="570.13" y="50" width="60" height="30" as="geometry" />
        </mxCell>
        <mxCell id="jgQKw97qstqUn-P2dx_w-107" value="" style="shape=cross;whiteSpace=wrap;html=1;rotation=45;size=0.16279371554005403;" parent="1" vertex="1">
          <mxGeometry x="595.13" y="475" width="10" height="10" as="geometry" />
        </mxCell>
        <mxCell id="jgQKw97qstqUn-P2dx_w-108" value="(1&lt;span style=&quot;background-color: initial;&quot;&gt;0.0, 1&lt;/span&gt;&lt;span style=&quot;background-color: initial;&quot;&gt;0.0)&lt;/span&gt;" style="text;html=1;align=center;verticalAlign=middle;whiteSpace=wrap;rounded=0;" parent="1" vertex="1">
          <mxGeometry x="560.13" y="485" width="80" height="30" as="geometry" />
        </mxCell>
        <mxCell id="jgQKw97qstqUn-P2dx_w-110" value="" style="shape=cross;whiteSpace=wrap;html=1;rotation=45;size=0.16279371554005403;" parent="1" vertex="1">
          <mxGeometry x="215.13" y="95" width="10" height="10" as="geometry" />
        </mxCell>
        <mxCell id="jgQKw97qstqUn-P2dx_w-111" value="&lt;font style=&quot;font-size: 6px;&quot;&gt;(0.5, 0.5)&lt;/font&gt;" style="text;html=1;align=center;verticalAlign=middle;whiteSpace=wrap;rounded=0;" parent="1" vertex="1">
          <mxGeometry x="205.13" y="85" width="30" height="10" as="geometry" />
        </mxCell>
        <mxCell id="jgQKw97qstqUn-P2dx_w-112" value="Tile" style="whiteSpace=wrap;html=1;aspect=fixed;" parent="1" vertex="1">
          <mxGeometry x="180.38" y="679.5" width="40" height="40" as="geometry" />
        </mxCell>
        <mxCell id="jgQKw97qstqUn-P2dx_w-113" value="" style="shape=cross;whiteSpace=wrap;html=1;rotation=45;size=0.16279371554005403;fillColor=#f8cecc;strokeColor=#b85450;" parent="1" vertex="1">
          <mxGeometry x="175.38" y="674.5" width="10" height="10" as="geometry" />
        </mxCell>
        <mxCell id="jgQKw97qstqUn-P2dx_w-114" value="Origin" style="text;html=1;align=center;verticalAlign=middle;whiteSpace=wrap;rounded=0;" parent="1" vertex="1">
          <mxGeometry x="150.38" y="649.5" width="60" height="30" as="geometry" />
        </mxCell>
        <mxCell id="jgQKw97qstqUn-P2dx_w-115" value="Entity" style="whiteSpace=wrap;html=1;aspect=fixed;" parent="1" vertex="1">
          <mxGeometry x="580.13" y="636.5" width="40" height="40" as="geometry" />
        </mxCell>
        <mxCell id="jgQKw97qstqUn-P2dx_w-116" value="" style="shape=cross;whiteSpace=wrap;html=1;rotation=45;size=0.16279371554005403;fillColor=#f8cecc;strokeColor=#b85450;" parent="1" vertex="1">
          <mxGeometry x="595.13" y="671.5" width="10" height="10" as="geometry" />
        </mxCell>
        <mxCell id="jgQKw97qstqUn-P2dx_w-117" value="&lt;div style=&quot;font-size: 8px;&quot;&gt;Entity.Position&lt;/div&gt;&lt;div style=&quot;font-size: 8px;&quot;&gt;(Origin)&lt;br style=&quot;font-size: 8px;&quot;&gt;&lt;/div&gt;" style="text;html=1;align=center;verticalAlign=middle;whiteSpace=wrap;rounded=0;fontSize=8;" parent="1" vertex="1">
          <mxGeometry x="572.63" y="681.5" width="55" height="24.5" as="geometry" />
        </mxCell>
        <mxCell id="jgQKw97qstqUn-P2dx_w-118" value="" style="shape=cross;whiteSpace=wrap;html=1;rotation=45;size=0.16279371554005403;fillColor=#dae8fc;strokeColor=#6c8ebf;" parent="1" vertex="1">
          <mxGeometry x="575.13" y="631.5" width="10" height="10" as="geometry" />
        </mxCell>
        <mxCell id="jgQKw97qstqUn-P2dx_w-119" value="Entity.TopLeft" style="text;html=1;align=center;verticalAlign=middle;whiteSpace=wrap;rounded=0;fontSize=8;" parent="1" vertex="1">
          <mxGeometry x="520.13" y="616" width="60" height="25.5" as="geometry" />
        </mxCell>
        <mxCell id="jgQKw97qstqUn-P2dx_w-120" value="" style="shape=cross;whiteSpace=wrap;html=1;rotation=45;size=0.16279371554005403;fillColor=#dae8fc;strokeColor=#6c8ebf;" parent="1" vertex="1">
          <mxGeometry x="615.13" y="671.5" width="10" height="10" as="geometry" />
        </mxCell>
        <mxCell id="jgQKw97qstqUn-P2dx_w-121" value="Entity.BottomRight" style="text;html=1;align=center;verticalAlign=middle;whiteSpace=wrap;rounded=0;fontSize=8;" parent="1" vertex="1">
          <mxGeometry x="620.13" y="661.5" width="80" height="30" as="geometry" />
        </mxCell>
        <mxCell id="jgQKw97qstqUn-P2dx_w-122" value="" style="endArrow=classic;startArrow=classic;html=1;rounded=0;" parent="1" edge="1">
          <mxGeometry width="50" height="50" relative="1" as="geometry">
            <mxPoint x="580.13" y="626.5" as="sourcePoint" />
            <mxPoint x="620.13" y="626.5" as="targetPoint" />
          </mxGeometry>
        </mxCell>
        <mxCell id="jgQKw97qstqUn-P2dx_w-123" value="Entity.Size.X" style="text;html=1;align=center;verticalAlign=middle;whiteSpace=wrap;rounded=0;fontSize=8;" parent="1" vertex="1">
          <mxGeometry x="575.13" y="601" width="50" height="30" as="geometry" />
        </mxCell>
        <mxCell id="jgQKw97qstqUn-P2dx_w-124" value="" style="endArrow=classic;startArrow=classic;html=1;rounded=0;" parent="1" edge="1">
          <mxGeometry width="50" height="50" relative="1" as="geometry">
            <mxPoint x="570.13" y="676.5" as="sourcePoint" />
            <mxPoint x="570.13" y="636.5" as="targetPoint" />
          </mxGeometry>
        </mxCell>
        <mxCell id="jgQKw97qstqUn-P2dx_w-125" value="Entity.Size.Y" style="text;html=1;align=center;verticalAlign=middle;whiteSpace=wrap;rounded=0;fontSize=8;" parent="1" vertex="1">
          <mxGeometry x="520.13" y="641.5" width="50" height="30" as="geometry" />
        </mxCell>
        <mxCell id="jgQKw97qstqUn-P2dx_w-128" value="" style="shape=cross;whiteSpace=wrap;html=1;rotation=45;size=0.16279371554005403;fillColor=#f8cecc;strokeColor=#b85450;" parent="1" vertex="1">
          <mxGeometry x="595" y="809.5" width="10" height="10" as="geometry" />
        </mxCell>
        <mxCell id="jgQKw97qstqUn-P2dx_w-129" value="&lt;div style=&quot;font-size: 8px;&quot;&gt;Entity.Position&lt;/div&gt;&lt;div style=&quot;font-size: 8px;&quot;&gt;(Origin - Anchor point for resizing)&lt;br style=&quot;font-size: 8px;&quot;&gt;&lt;/div&gt;" style="text;html=1;align=center;verticalAlign=middle;whiteSpace=wrap;rounded=0;fontSize=8;" parent="1" vertex="1">
          <mxGeometry x="495" y="819.5" width="210" height="24.5" as="geometry" />
        </mxCell>
        <mxCell id="jgQKw97qstqUn-P2dx_w-130" value="" style="shape=cross;whiteSpace=wrap;html=1;rotation=45;size=0.16279371554005403;fillColor=#dae8fc;strokeColor=#6c8ebf;" parent="1" vertex="1">
          <mxGeometry x="540" y="750" width="10" height="10" as="geometry" />
        </mxCell>
        <mxCell id="jgQKw97qstqUn-P2dx_w-131" value="Entity.TopLeft" style="text;html=1;align=center;verticalAlign=middle;whiteSpace=wrap;rounded=0;fontSize=8;" parent="1" vertex="1">
          <mxGeometry x="485" y="734.5" width="60" height="25.5" as="geometry" />
        </mxCell>
        <mxCell id="jgQKw97qstqUn-P2dx_w-132" value="" style="shape=cross;whiteSpace=wrap;html=1;rotation=45;size=0.16279371554005403;fillColor=#dae8fc;strokeColor=#6c8ebf;" parent="1" vertex="1">
          <mxGeometry x="650" y="809.5" width="10" height="10" as="geometry" />
        </mxCell>
        <mxCell id="jgQKw97qstqUn-P2dx_w-133" value="Entity.BottomRight" style="text;html=1;align=center;verticalAlign=middle;whiteSpace=wrap;rounded=0;fontSize=8;" parent="1" vertex="1">
          <mxGeometry x="655" y="799.5" width="80" height="30" as="geometry" />
        </mxCell>
        <mxCell id="jgQKw97qstqUn-P2dx_w-134" value="" style="endArrow=classic;startArrow=classic;html=1;rounded=0;" parent="1" edge="1">
          <mxGeometry width="50" height="50" relative="1" as="geometry">
            <mxPoint x="545" y="745" as="sourcePoint" />
            <mxPoint x="655" y="744.5" as="targetPoint" />
          </mxGeometry>
        </mxCell>
        <mxCell id="jgQKw97qstqUn-P2dx_w-135" value="Entity.Size.X" style="text;html=1;align=center;verticalAlign=middle;whiteSpace=wrap;rounded=0;fontSize=8;" parent="1" vertex="1">
          <mxGeometry x="575" y="720" width="50" height="30" as="geometry" />
        </mxCell>
        <mxCell id="jgQKw97qstqUn-P2dx_w-136" value="" style="endArrow=classic;startArrow=classic;html=1;rounded=0;" parent="1" edge="1">
          <mxGeometry width="50" height="50" relative="1" as="geometry">
            <mxPoint x="535" y="814.5" as="sourcePoint" />
            <mxPoint x="535" y="755" as="targetPoint" />
          </mxGeometry>
        </mxCell>
        <mxCell id="jgQKw97qstqUn-P2dx_w-137" value="Entity.Size.Y" style="text;html=1;align=center;verticalAlign=middle;whiteSpace=wrap;rounded=0;fontSize=8;" parent="1" vertex="1">
          <mxGeometry x="485" y="769.75" width="50" height="30" as="geometry" />
        </mxCell>
        <mxCell id="jgQKw97qstqUn-P2dx_w-142" value="" style="shape=cross;whiteSpace=wrap;html=1;rotation=45;size=0.16279371554005403;" parent="1" vertex="1">
          <mxGeometry x="195.13" y="115" width="10" height="10" as="geometry" />
        </mxCell>
        <mxCell id="jgQKw97qstqUn-P2dx_w-143" value="(0.0, 1.0)" style="text;html=1;align=center;verticalAlign=middle;whiteSpace=wrap;rounded=0;" parent="1" vertex="1">
          <mxGeometry x="140.13" y="105" width="60" height="30" as="geometry" />
        </mxCell>
        <mxCell id="jgQKw97qstqUn-P2dx_w-144" value="&lt;font style=&quot;font-size: 15px;&quot;&gt;&lt;b&gt;Tile Grid&lt;/b&gt;&lt;/font&gt;" style="text;html=1;align=center;verticalAlign=middle;whiteSpace=wrap;rounded=0;" parent="1" vertex="1">
          <mxGeometry x="360.13" y="25" width="80" height="30" as="geometry" />
        </mxCell>
        <mxCell id="jgQKw97qstqUn-P2dx_w-145" value="" style="shape=cross;whiteSpace=wrap;html=1;rotation=45;size=0.16279371554005403;" parent="1" vertex="1">
          <mxGeometry x="345.13" y="115" width="10" height="10" as="geometry" />
        </mxCell>
        <mxCell id="jgQKw97qstqUn-P2dx_w-146" value="&lt;font style=&quot;font-size: 6px;&quot;&gt;(3.75, 1.0)&lt;/font&gt;" style="text;html=1;align=center;verticalAlign=middle;whiteSpace=wrap;rounded=0;" parent="1" vertex="1">
          <mxGeometry x="330.13" y="105" width="30" height="10" as="geometry" />
        </mxCell>
        <mxCell id="P4V7UdeAu1uRV4RaYaoc-2" value="" style="whiteSpace=wrap;html=1;aspect=fixed;fillColor=#f8cecc;strokeColor=#b85450;" parent="1" vertex="1">
          <mxGeometry x="159.38" y="800.25" width="40" height="40" as="geometry" />
        </mxCell>
        <mxCell id="P4V7UdeAu1uRV4RaYaoc-3" value="" style="shape=cross;whiteSpace=wrap;html=1;rotation=45;size=0.16279371554005403;fillColor=#f8cecc;strokeColor=#b85450;" parent="1" vertex="1">
          <mxGeometry x="154.38" y="795.25" width="10" height="10" as="geometry" />
        </mxCell>
        <mxCell id="P4V7UdeAu1uRV4RaYaoc-5" value="" style="whiteSpace=wrap;html=1;aspect=fixed;fillColor=#dae8fc;strokeColor=#6c8ebf;" parent="1" vertex="1">
          <mxGeometry x="199.38" y="800" width="40" height="40" as="geometry" />
        </mxCell>
        <mxCell id="P4V7UdeAu1uRV4RaYaoc-6" value="" style="shape=cross;whiteSpace=wrap;html=1;rotation=45;size=0.16279371554005403;fillColor=#dae8fc;strokeColor=#6c8ebf;" parent="1" vertex="1">
          <mxGeometry x="194.38" y="795" width="10" height="10" as="geometry" />
        </mxCell>
        <mxCell id="P4V7UdeAu1uRV4RaYaoc-7" value="" style="whiteSpace=wrap;html=1;aspect=fixed;fillColor=#fff2cc;strokeColor=#d6b656;" parent="1" vertex="1">
          <mxGeometry x="159.38" y="840" width="40" height="40" as="geometry" />
        </mxCell>
        <mxCell id="P4V7UdeAu1uRV4RaYaoc-8" value="" style="shape=cross;whiteSpace=wrap;html=1;rotation=45;size=0.16279371554005403;fillColor=#fff2cc;strokeColor=#d6b656;" parent="1" vertex="1">
          <mxGeometry x="154.38" y="835" width="10" height="10" as="geometry" />
        </mxCell>
        <mxCell id="P4V7UdeAu1uRV4RaYaoc-9" value="" style="whiteSpace=wrap;html=1;aspect=fixed;fillColor=#d5e8d4;strokeColor=#82b366;" parent="1" vertex="1">
          <mxGeometry x="199.38" y="840" width="40" height="40" as="geometry" />
        </mxCell>
        <mxCell id="P4V7UdeAu1uRV4RaYaoc-10" value="" style="shape=cross;whiteSpace=wrap;html=1;rotation=45;size=0.16279371554005403;fillColor=#d5e8d4;strokeColor=#82b366;" parent="1" vertex="1">
          <mxGeometry x="194.38" y="835" width="10" height="10" as="geometry" />
        </mxCell>
        <mxCell id="rWFCLxRSO2GPA6Dn34BE-1" value="" style="endArrow=none;html=1;rounded=0;exitX=0;exitY=1;exitDx=0;exitDy=0;fillColor=#f5f5f5;strokeColor=#666666;" edge="1" parent="1">
          <mxGeometry width="50" height="50" relative="1" as="geometry">
            <mxPoint x="158.9" y="880" as="sourcePoint" />
            <mxPoint x="240" y="880" as="targetPoint" />
          </mxGeometry>
        </mxCell>
        <mxCell id="P4V7UdeAu1uRV4RaYaoc-13" value="Positions exactly on a tile boundary are part of the tile closest to the bottom right" style="text;html=1;align=center;verticalAlign=middle;whiteSpace=wrap;rounded=0;" parent="1" vertex="1">
          <mxGeometry x="98.13" y="894.5" width="202.5" height="45.5" as="geometry" />
        </mxCell>
        <mxCell id="rWFCLxRSO2GPA6Dn34BE-2" value="" style="endArrow=none;html=1;rounded=0;fillColor=#f5f5f5;strokeColor=#666666;" edge="1" parent="1">
          <mxGeometry width="50" height="50" relative="1" as="geometry">
            <mxPoint x="239.4" y="799.5" as="sourcePoint" />
            <mxPoint x="239.4" y="880" as="targetPoint" />
          </mxGeometry>
        </mxCell>
        <mxCell id="bIBZSXxTa3mRfIi65bDP-1" value="" style="shape=cross;whiteSpace=wrap;html=1;rotation=45;size=0.16279371554005403;fillColor=#f5f5f5;strokeColor=#666666;fontColor=#333333;" parent="1" vertex="1">
          <mxGeometry x="234.38" y="875" width="10" height="10" as="geometry" />
        </mxCell>
        <mxCell id="bIBZSXxTa3mRfIi65bDP-2" value="Out of Bounds&lt;div style=&quot;font-size: 8px;&quot;&gt;(Positions must be less than, but not equal to, the room dimensions)&lt;/div&gt;" style="text;html=1;align=left;verticalAlign=middle;whiteSpace=wrap;rounded=0;fontSize=8;" parent="1" vertex="1">
          <mxGeometry x="244.38" y="864.5" width="130" height="30" as="geometry" />
        </mxCell>
        <mxCell id="7RPpXYVmTn_5vqouhQGR-1" value="" style="endArrow=none;html=1;rounded=0;" parent="1" edge="1">
          <mxGeometry width="50" height="50" relative="1" as="geometry">
            <mxPoint x="10" y="560" as="sourcePoint" />
            <mxPoint x="790" y="560" as="targetPoint" />
          </mxGeometry>
        </mxCell>
        <mxCell id="7RPpXYVmTn_5vqouhQGR-2" value="" style="endArrow=none;html=1;rounded=0;" parent="1" edge="1">
          <mxGeometry width="50" height="50" relative="1" as="geometry">
            <mxPoint x="400" y="990" as="sourcePoint" />
            <mxPoint x="400" y="560" as="targetPoint" />
          </mxGeometry>
        </mxCell>
        <mxCell id="7RPpXYVmTn_5vqouhQGR-3" value="&lt;font style=&quot;font-size: 15px;&quot;&gt;&lt;b&gt;Tiles&lt;/b&gt;&lt;/font&gt;" style="text;html=1;align=center;verticalAlign=middle;whiteSpace=wrap;rounded=0;" parent="1" vertex="1">
          <mxGeometry x="160.13" y="570" width="80" height="30" as="geometry" />
        </mxCell>
        <mxCell id="7RPpXYVmTn_5vqouhQGR-4" value="&lt;font style=&quot;font-size: 15px;&quot;&gt;&lt;b&gt;Entities&lt;/b&gt;&lt;/font&gt;" style="text;html=1;align=center;verticalAlign=middle;whiteSpace=wrap;rounded=0;" parent="1" vertex="1">
          <mxGeometry x="560.13" y="570" width="80" height="30" as="geometry" />
        </mxCell>
        <mxCell id="7RPpXYVmTn_5vqouhQGR-5" value="" style="whiteSpace=wrap;html=1;aspect=fixed;" parent="1" vertex="1">
          <mxGeometry x="559.13" y="872.5" width="40" height="40" as="geometry" />
        </mxCell>
        <mxCell id="7RPpXYVmTn_5vqouhQGR-6" value="" style="shape=cross;whiteSpace=wrap;html=1;rotation=45;size=0.16279371554005403;fillColor=#f8cecc;strokeColor=#b85450;" parent="1" vertex="1">
          <mxGeometry x="574.13" y="907.5" width="10" height="10" as="geometry" />
        </mxCell>
        <mxCell id="7RPpXYVmTn_5vqouhQGR-7" value="" style="whiteSpace=wrap;html=1;aspect=fixed;" parent="1" vertex="1">
          <mxGeometry x="599.13" y="872.5" width="40" height="40" as="geometry" />
        </mxCell>
        <mxCell id="7RPpXYVmTn_5vqouhQGR-8" value="" style="shape=cross;whiteSpace=wrap;html=1;rotation=45;size=0.16279371554005403;fillColor=#f8cecc;strokeColor=#b85450;" parent="1" vertex="1">
          <mxGeometry x="614.13" y="907.5" width="10" height="10" as="geometry" />
        </mxCell>
        <mxCell id="7RPpXYVmTn_5vqouhQGR-9" value="" style="whiteSpace=wrap;html=1;aspect=fixed;" parent="1" vertex="1">
          <mxGeometry x="599.13" y="912.5" width="40" height="40" as="geometry" />
        </mxCell>
        <mxCell id="7RPpXYVmTn_5vqouhQGR-10" value="" style="shape=cross;whiteSpace=wrap;html=1;rotation=45;size=0.16279371554005403;fillColor=#f8cecc;strokeColor=#b85450;" parent="1" vertex="1">
          <mxGeometry x="614.13" y="947.5" width="10" height="10" as="geometry" />
        </mxCell>
        <mxCell id="7RPpXYVmTn_5vqouhQGR-11" value="" style="whiteSpace=wrap;html=1;aspect=fixed;" parent="1" vertex="1">
          <mxGeometry x="559.13" y="912.5" width="40" height="40" as="geometry" />
        </mxCell>
        <mxCell id="7RPpXYVmTn_5vqouhQGR-12" value="" style="shape=cross;whiteSpace=wrap;html=1;rotation=45;size=0.16279371554005403;fillColor=#f8cecc;strokeColor=#b85450;" parent="1" vertex="1">
          <mxGeometry x="574.13" y="947.5" width="10" height="10" as="geometry" />
        </mxCell>
        <mxCell id="7RPpXYVmTn_5vqouhQGR-13" value="Entities may share common edges without colliding" style="text;html=1;align=center;verticalAlign=middle;whiteSpace=wrap;rounded=0;" parent="1" vertex="1">
          <mxGeometry x="510" y="959" width="180" height="30" as="geometry" />
        </mxCell>
      </root>
    </mxGraphModel>
  </diagram>
</mxfile>
